<svg xmlns="http://www.w3.org/2000/svg" xmlns:xlink="http://www.w3.org/1999/xlink" width="1000" zoomAndPan="magnify" viewBox="0 0 750 172.499995" height="230" preserveAspectRatio="xMidYMid meet" version="1.0"><defs><clipPath id="7442395b40"><path d="M 1.082031 0 L 748.914062 0 L 748.914062 107.171875 L 1.082031 107.171875 Z M 1.082031 0 " clip-rule="nonzero"/></clipPath><clipPath id="590c52c4da"><path d="M 1.082031 90 L 748.914062 90 L 748.914062 172 L 1.082031 172 Z M 1.082031 90 " clip-rule="nonzero"/></clipPath><clipPath id="a1fe16e511"><path d="M 1.082031 64.894531 L 748.914062 64.894531 L 748.914062 172 L 1.082031 172 Z M 1.082031 64.894531 " clip-rule="nonzero"/></clipPath><clipPath id="8054b2fb9d"><path d="M 484 156 L 524 156 L 524 172 L 484 172 Z M 484 156 " clip-rule="nonzero"/></clipPath><clipPath id="080cb0f243"><path d="M 517 156 L 557 156 L 557 172 L 517 172 Z M 517 156 " clip-rule="nonzero"/></clipPath><clipPath id="cf77f68f18"><path d="M 550 156 L 590 156 L 590 172 L 550 172 Z M 550 156 " clip-rule="nonzero"/></clipPath><clipPath id="4c44e9b928"><path d="M 583 156 L 623 156 L 623 172 L 583 172 Z M 583 156 " clip-rule="nonzero"/></clipPath></defs><g clip-path="url(#7442395b40)"><path fill="#00cbff" d="M 729.398438 4.835938 L 19.433594 4.835938 C 15.640625 4.835938 12.199219 6.382812 9.707031 8.878906 C 7.214844 11.375 5.667969 14.816406 5.667969 18.613281 L 5.667969 195.777344 C 5.667969 199.511719 7.171875 202.914062 9.582031 205.390625 L 9.707031 205.511719 C 12.199219 208.007812 15.640625 209.554688 19.433594 209.554688 L 729.378906 209.554688 C 733.167969 209.554688 736.609375 208.007812 739.101562 205.511719 C 741.597656 203.015625 743.140625 199.574219 743.140625 195.777344 L 743.140625 18.613281 C 743.140625 14.816406 741.597656 11.375 739.101562 8.878906 C 736.628906 6.382812 733.1875 4.835938 729.398438 4.835938 M 19.433594 -0.175781 L 729.378906 -0.175781 C 734.527344 -0.175781 739.207031 1.949219 742.625 5.351562 C 746.027344 8.753906 748.148438 13.4375 748.148438 18.613281 L 748.148438 195.777344 C 748.148438 200.933594 746.046875 205.636719 742.648438 209.039062 C 739.246094 212.441406 734.550781 214.546875 729.398438 214.546875 L 19.433594 214.546875 C 14.28125 214.546875 9.582031 212.441406 6.183594 209.039062 L 6.039062 208.894531 C 2.722656 205.492188 0.660156 200.871094 0.660156 195.777344 L 0.660156 18.613281 C 0.660156 13.457031 2.761719 8.753906 6.164062 5.351562 C 9.5625 1.949219 14.28125 -0.175781 19.433594 -0.175781 Z M 19.433594 -0.175781 " fill-opacity="1" fill-rule="nonzero"/></g><path fill="#00cbff" d="M 60.808594 -11.207031 L 261.890625 -11.207031 L 241.535156 15.871094 L 40.449219 15.871094 Z M 60.808594 -11.207031 " fill-opacity="1" fill-rule="evenodd"/><path fill="#00cbff" d="M 281.300781 -11.207031 L 299.660156 -11.207031 L 279.300781 15.871094 L 260.945312 15.871094 Z M 281.300781 -11.207031 " fill-opacity="1" fill-rule="evenodd"/><path fill="#00cbff" d="M 314.167969 -11.207031 L 332.546875 -11.207031 L 312.167969 15.871094 L 293.808594 15.871094 Z M 314.167969 -11.207031 " fill-opacity="1" fill-rule="evenodd"/><path fill="#00cbff" d="M 347.03125 -11.207031 L 365.410156 -11.207031 L 345.03125 15.871094 L 326.671875 15.871094 Z M 347.03125 -11.207031 " fill-opacity="1" fill-rule="evenodd"/><path fill="#00cbff" d="M 379.917969 -11.207031 L 398.277344 -11.207031 L 377.898438 15.871094 L 359.539062 15.871094 Z M 379.917969 -11.207031 " fill-opacity="1" fill-rule="evenodd"/><g clip-path="url(#590c52c4da)"><path fill="#00cbff" d="M 247.425781 178.441406 C 248.808594 178.441406 249.921875 179.554688 249.921875 180.9375 C 249.921875 182.320312 248.808594 183.433594 247.425781 183.433594 L 19.433594 183.433594 C 11.355469 183.433594 4.019531 180.113281 -1.316406 174.792969 C -6.652344 169.472656 -9.949219 162.109375 -9.949219 154.027344 L -9.949219 109.070312 C -9.949219 107.6875 -8.835938 106.574219 -7.457031 106.574219 C -6.078125 106.574219 -4.964844 107.6875 -4.964844 109.070312 L -4.964844 154.027344 C -4.964844 160.726562 -2.222656 166.832031 2.207031 171.265625 C 6.617188 175.699219 12.714844 178.441406 19.433594 178.441406 Z M 753.773438 93.128906 C 753.773438 91.746094 754.886719 90.632812 756.265625 90.632812 C 757.648438 90.632812 758.757812 91.746094 758.757812 93.128906 L 758.757812 154.027344 C 758.757812 162.109375 755.441406 169.453125 750.125 174.792969 C 744.789062 180.132812 737.453125 183.433594 729.378906 183.433594 L 642.960938 183.433594 C 641.578125 183.433594 640.464844 182.320312 640.464844 180.9375 C 640.464844 179.554688 641.578125 178.441406 642.960938 178.441406 L 729.378906 178.441406 C 736.09375 178.441406 742.191406 175.699219 746.601562 171.285156 C 751.011719 166.875 753.753906 160.769531 753.753906 154.046875 L 753.753906 93.128906 Z M 753.773438 93.128906 " fill-opacity="1" fill-rule="nonzero"/></g><g clip-path="url(#a1fe16e511)"><path fill="#00cbff" d="M 729.398438 -36.894531 L 19.433594 -36.894531 C 15.640625 -36.894531 12.199219 -35.347656 9.707031 -32.855469 C 7.214844 -30.359375 5.667969 -26.914062 5.667969 -23.121094 L 5.667969 154.046875 C 5.667969 157.777344 7.171875 161.183594 9.582031 163.65625 L 9.707031 163.78125 C 12.199219 166.277344 15.640625 167.820312 19.433594 167.820312 L 729.378906 167.820312 C 733.167969 167.820312 736.609375 166.277344 739.101562 163.78125 C 741.597656 161.285156 743.140625 157.839844 743.140625 154.046875 L 743.140625 -23.121094 C 743.140625 -26.914062 741.597656 -30.359375 739.101562 -32.855469 C 736.628906 -35.347656 733.1875 -36.894531 729.398438 -36.894531 M 19.433594 -41.90625 L 729.378906 -41.90625 C 734.527344 -41.90625 739.207031 -39.78125 742.625 -36.378906 C 746.027344 -32.976562 748.148438 -28.296875 748.148438 -23.121094 L 748.148438 154.046875 C 748.148438 159.203125 746.046875 163.902344 742.648438 167.304688 C 739.246094 170.710938 734.550781 172.8125 729.398438 172.8125 L 19.433594 172.8125 C 14.28125 172.8125 9.582031 170.710938 6.183594 167.304688 L 6.039062 167.164062 C 2.722656 163.757812 0.660156 159.140625 0.660156 154.046875 L 0.660156 -23.121094 C 0.660156 -28.277344 2.761719 -32.976562 6.164062 -36.378906 C 9.5625 -39.78125 14.28125 -41.90625 19.433594 -41.90625 Z M 19.433594 -41.90625 " fill-opacity="1" fill-rule="nonzero"/></g><g clip-path="url(#8054b2fb9d)"><path fill="#00cbff" d="M 505.132812 156.769531 L 523.492188 156.769531 L 503.132812 183.84375 L 484.753906 183.84375 Z M 505.132812 156.769531 " fill-opacity="1" fill-rule="evenodd"/></g><g clip-path="url(#080cb0f243)"><path fill="#00cbff" d="M 538 156.769531 L 556.355469 156.769531 L 536 183.84375 L 517.621094 183.84375 Z M 538 156.769531 " fill-opacity="1" fill-rule="evenodd"/></g><g clip-path="url(#cf77f68f18)"><path fill="#00cbff" d="M 570.863281 156.769531 L 589.222656 156.769531 L 568.863281 183.84375 L 550.503906 183.84375 Z M 570.863281 156.769531 " fill-opacity="1" fill-rule="evenodd"/></g><g clip-path="url(#4c44e9b928)"><path fill="#00cbff" d="M 603.726562 156.769531 L 622.109375 156.769531 L 601.730469 183.84375 L 583.371094 183.84375 Z M 603.726562 156.769531 " fill-opacity="1" fill-rule="evenodd"/></g></svg>